<?xml version="1.0" encoding="UTF-8" standalone="no"?>
<!-- Created with Inkscape (http://www.inkscape.org/) -->

<svg
   xmlns:osb="http://www.openswatchbook.org/uri/2009/osb"
   xmlns:dc="http://purl.org/dc/elements/1.1/"
   xmlns:cc="http://creativecommons.org/ns#"
   xmlns:rdf="http://www.w3.org/1999/02/22-rdf-syntax-ns#"
   xmlns:svg="http://www.w3.org/2000/svg"
   xmlns="http://www.w3.org/2000/svg"
   xmlns:xlink="http://www.w3.org/1999/xlink"
   xmlns:sodipodi="http://sodipodi.sourceforge.net/DTD/sodipodi-0.dtd"
   xmlns:inkscape="http://www.inkscape.org/namespaces/inkscape"
   width="50mm"
   height="50mm"
   viewBox="0 0 50 50"
   version="1.1"
   id="svg8"
   inkscape:version="0.92.4 (5da689c313, 2019-01-14)"
   sodipodi:docname="add.svg">
  <defs
     id="defs2">
    <linearGradient
       id="linearGradient816"
       osb:paint="solid">
      <stop
         style="stop-color:#000000;stop-opacity:0.12154696;"
         offset="0"
         id="stop814" />
    </linearGradient>
    <linearGradient
       inkscape:collect="always"
       xlink:href="#linearGradient816"
       id="linearGradient820"
       x1="-26.603619"
       y1="-272"
       x2="-23.396384"
       y2="-272"
       gradientUnits="userSpaceOnUse"
       gradientTransform="matrix(-3.7795276,0,0,-3.7795276,0,-933.54331)" />
  </defs>
  <sodipodi:namedview
     id="base"
     pagecolor="#ffffff"
     bordercolor="#666666"
     borderopacity="1.0"
     inkscape:pageopacity="0.74509804"
     inkscape:pageshadow="2"
     inkscape:zoom="2.8"
     inkscape:cx="-3.1117123"
     inkscape:cy="89.593461"
     inkscape:document-units="mm"
     inkscape:current-layer="layer1"
     showgrid="false"
     inkscape:pagecheckerboard="true"
     inkscape:window-width="1920"
     inkscape:window-height="1027"
     inkscape:window-x="1912"
     inkscape:window-y="-8"
     inkscape:window-maximized="1" />
  <metadata
     id="metadata5">
    <rdf:RDF>
      <cc:Work
         rdf:about="">
        <dc:format>image/svg+xml</dc:format>
        <dc:type
           rdf:resource="http://purl.org/dc/dcmitype/StillImage" />
        <dc:title />
      </cc:Work>
    </rdf:RDF>
  </metadata>
  <g
     inkscape:label="Layer 1"
     inkscape:groupmode="layer"
     id="layer1"
     transform="translate(0,-247)">
    <path
       style="fill:url(#linearGradient820);fill-opacity:1;stroke-width:0.49747494"
       d="M 88.427734 50.546875 L 88.427734 88.427734 L 50.546875 88.427734 L 50.546875 100.54883 L 88.427734 100.54883 L 88.427734 138.42969 L 100.54883 138.42969 L 100.54883 100.54883 L 138.42969 100.54883 L 138.42969 88.427734 L 100.54883 88.427734 L 100.54883 50.546875 L 88.427734 50.546875 z "
       transform="matrix(0.26458333,0,0,0.26458333,0,247)"
       id="rect814" />
    <path
       inkscape:connector-curvature="0"
       id="rect1511"
       d="m 8.7551589,248.21735 c -4.4601578,0 -8.05083226,3.59068 -8.05083226,8.05083 v 31.46364 c 0,4.46015 3.59067446,8.05083 8.05083226,8.05083 H 41.244981 c 4.460154,0 8.050692,-3.59068 8.050692,-8.05083 v -31.46364 c 0,-4.46015 -3.590538,-8.05083 -8.050692,-8.05083 z m 0.023218,3.05648 H 41.10925 c 2.826122,0 5.101263,2.27515 5.101263,5.10126 v 31.43254 c 0,2.82613 -2.275141,5.10128 -5.101263,5.10128 H 8.7783706 c -2.8261199,0 -5.1012646,-2.27515 -5.1012646,-5.10128 v -31.43254 c 0,-2.82611 2.2751447,-5.10126 5.1012646,-5.10126 z"
       style="opacity:1;fill:#000000;fill-opacity:0.14117648;stroke:none;stroke-width:14.34832764;stroke-linecap:square;stroke-linejoin:round;stroke-miterlimit:4;stroke-dasharray:none;stroke-dashoffset:0;stroke-opacity:1;paint-order:normal" />
  </g>
</svg>
