<?xml version="1.0" encoding="UTF-8" standalone="no"?>
<!-- Created with Inkscape (http://www.inkscape.org/) -->

<svg
   xmlns:dc="http://purl.org/dc/elements/1.1/"
   xmlns:cc="http://creativecommons.org/ns#"
   xmlns:rdf="http://www.w3.org/1999/02/22-rdf-syntax-ns#"
   xmlns:svg="http://www.w3.org/2000/svg"
   xmlns="http://www.w3.org/2000/svg"
   xmlns:sodipodi="http://sodipodi.sourceforge.net/DTD/sodipodi-0.dtd"
   xmlns:inkscape="http://www.inkscape.org/namespaces/inkscape"
   width="144"
   height="144"
   viewBox="0 0 38.1 38.1"
   version="1.1"
   id="svg916"
   inkscape:version="0.92.2 (5c3e80d, 2017-08-06)"
   sodipodi:docname="calander.svg">
  <defs
     id="defs910" />
  <sodipodi:namedview
     id="base"
     pagecolor="#ffffff"
     bordercolor="#666666"
     borderopacity="1.0"
     inkscape:pageopacity="0.0"
     inkscape:pageshadow="2"
     inkscape:zoom="5.6"
     inkscape:cx="55.763384"
     inkscape:cy="75.24939"
     inkscape:document-units="mm"
     inkscape:current-layer="g1557"
     showgrid="false"
     units="px"
     inkscape:window-width="1920"
     inkscape:window-height="1003"
     inkscape:window-x="-9"
     inkscape:window-y="-9"
     inkscape:window-maximized="1" />
  <metadata
     id="metadata913">
    <rdf:RDF>
      <cc:Work
         rdf:about="">
        <dc:format>image/svg+xml</dc:format>
        <dc:type
           rdf:resource="http://purl.org/dc/dcmitype/StillImage" />
        <dc:title></dc:title>
      </cc:Work>
    </rdf:RDF>
  </metadata>
  <g
     inkscape:label="Layer 1"
     inkscape:groupmode="layer"
     id="layer1"
     transform="translate(0,-258.89999)">
    <g
       id="g1509"
       transform="translate(333.43524,173.73935)">
      <g
         id="g1557"
         transform="matrix(0.21262385,0,0,0.21262385,-250.13615,72.987521)"
         style="stroke-width:4.70314169">
        <path
           inkscape:connector-curvature="0"
           id="rect1540"
           d="m -264.01967,129.32177 c -5.91078,0 -10.66912,4.75885 -10.66912,10.66963 v 19.26446 c 0,5.91078 4.75834,10.66963 10.66912,10.66963 h 21.81882 c 5.91078,0 10.66912,-4.75885 10.66912,-10.66963 V 139.9914 c 0,-5.91078 -4.75834,-10.66963 -10.66912,-10.66963 z m 0.14107,3.9088 h 21.54856 c 3.77613,0 6.81612,3.04 6.81612,6.81612 v 19.13992 c 0,3.77613 -3.03999,6.81612 -6.81612,6.81612 h -21.54856 c -3.77612,0 -6.81612,-3.03999 -6.81612,-6.81612 v -19.13992 c 0,-3.77612 3.04,-6.81612 6.81612,-6.81612 z"
           style="opacity:1;fill:#000d00;fill-opacity:1;stroke:none;stroke-width:18.34225082;stroke-linecap:square;stroke-linejoin:round;stroke-miterlimit:4;stroke-dasharray:none;stroke-dashoffset:0;stroke-opacity:1;paint-order:normal" />
        <rect
           style="opacity:1;fill:#000000;fill-opacity:1;stroke:none;stroke-width:305.70419312;stroke-linecap:square;stroke-linejoin:round;stroke-miterlimit:4;stroke-dasharray:none;stroke-dashoffset:0;stroke-opacity:1;paint-order:normal"
           id="rect1495"
           width="166.02316"
           height="6.6090202"
           x="-385.27853"
           y="114.28491"
           ry="3.3045101" />
        <path
           inkscape:connector-curvature="0"
           id="rect1511"
           d="m -360.74521,61.09564 c -16.08161,0 -29.0282,12.946604 -29.0282,29.028203 V 203.56964 c 0,16.0816 12.94659,29.0282 29.0282,29.0282 h 117.14581 c 16.0816,0 29.02769,-12.9466 29.02769,-29.0282 V 90.123843 c 0,-16.081599 -12.94609,-29.028203 -29.02769,-29.028203 z m 0.0837,11.020516 h 116.57271 c 10.1899,0 18.3932,8.203297 18.3932,18.393187 V 203.84301 c 0,10.18989 -8.2033,18.39319 -18.3932,18.39319 h -116.57271 c -10.1899,0 -18.3932,-8.2033 -18.3932,-18.39319 V 90.509343 c 0,-10.18989 8.2033,-18.393187 18.3932,-18.393187 z"
           style="opacity:1;fill:#000000;fill-opacity:1;stroke:none;stroke-width:51.73455048;stroke-linecap:square;stroke-linejoin:round;stroke-miterlimit:4;stroke-dasharray:none;stroke-dashoffset:0;stroke-opacity:1;paint-order:normal" />
        <path
           style="opacity:1;fill:#000d00;fill-opacity:1;stroke:none;stroke-width:18.34225082;stroke-linecap:square;stroke-linejoin:round;stroke-miterlimit:4;stroke-dasharray:none;stroke-dashoffset:0;stroke-opacity:1;paint-order:normal"
           d="m -314.01741,177.51372 c -5.91078,0 -10.66912,4.75885 -10.66912,10.66963 v 19.26446 c 0,5.91078 4.75834,10.66963 10.66912,10.66963 h 21.81882 c 5.91078,0 10.66912,-4.75885 10.66912,-10.66963 v -19.26446 c 0,-5.91078 -4.75834,-10.66963 -10.66912,-10.66963 z m 0.14107,3.9088 h 21.54856 c 3.77613,0 6.81612,3.04 6.81612,6.81612 v 19.13992 c 0,3.77613 -3.03999,6.81612 -6.81612,6.81612 h -21.54856 c -3.77612,0 -6.81612,-3.03999 -6.81612,-6.81612 v -19.13992 c 0,-3.77612 3.04,-6.81612 6.81612,-6.81612 z"
           id="path1547"
           inkscape:connector-curvature="0" />
        <path
           inkscape:connector-curvature="0"
           id="path825"
           d="m -314.01739,129.32176 c -5.91078,0 -10.66912,4.75885 -10.66912,10.66963 v 19.26446 c 0,5.91078 4.75834,10.66963 10.66912,10.66963 h 21.81882 c 5.91078,0 10.66912,-4.75885 10.66912,-10.66963 v -19.26446 c 0,-5.91078 -4.75834,-10.66963 -10.66912,-10.66963 z m 0.14107,3.9088 h 21.54856 c 3.77613,0 6.81612,3.04 6.81612,6.81612 v 19.13992 c 0,3.77613 -3.03999,6.81612 -6.81612,6.81612 h -21.54856 c -3.77612,0 -6.81612,-3.03999 -6.81612,-6.81612 v -19.13992 c 0,-3.77612 3.04,-6.81612 6.81612,-6.81612 z"
           style="opacity:1;fill:#000d00;fill-opacity:1;stroke:none;stroke-width:18.34225082;stroke-linecap:square;stroke-linejoin:round;stroke-miterlimit:4;stroke-dasharray:none;stroke-dashoffset:0;stroke-opacity:1;paint-order:normal" />
        <path
           style="opacity:1;fill:#000d00;fill-opacity:1;stroke:none;stroke-width:18.34225082;stroke-linecap:square;stroke-linejoin:round;stroke-miterlimit:4;stroke-dasharray:none;stroke-dashoffset:0;stroke-opacity:1;paint-order:normal"
           d="m -363.37359,129.32176 c -5.91078,0 -10.66912,4.75885 -10.66912,10.66963 v 19.26446 c 0,5.91078 4.75834,10.66963 10.66912,10.66963 h 21.81882 c 5.91078,0 10.66912,-4.75885 10.66912,-10.66963 v -19.26446 c 0,-5.91078 -4.75834,-10.66963 -10.66912,-10.66963 z m 0.14107,3.9088 h 21.54856 c 3.77613,0 6.81612,3.04 6.81612,6.81612 v 19.13992 c 0,3.77613 -3.03999,6.81612 -6.81612,6.81612 h -21.54856 c -3.77612,0 -6.81612,-3.03999 -6.81612,-6.81612 v -19.13992 c 0,-3.77612 3.04,-6.81612 6.81612,-6.81612 z"
           id="path827"
           inkscape:connector-curvature="0" />
        <path
           inkscape:connector-curvature="0"
           id="path829"
           d="m -363.37359,177.32474 c -5.91078,0 -10.66912,4.75885 -10.66912,10.66963 v 19.26446 c 0,5.91078 4.75834,10.66963 10.66912,10.66963 h 21.81882 c 5.91078,0 10.66912,-4.75885 10.66912,-10.66963 v -19.26446 c 0,-5.91078 -4.75834,-10.66963 -10.66912,-10.66963 z m 0.14107,3.9088 h 21.54856 c 3.77613,0 6.81612,3.04 6.81612,6.81612 v 19.13992 c 0,3.77613 -3.03999,6.81612 -6.81612,6.81612 h -21.54856 c -3.77612,0 -6.81612,-3.03999 -6.81612,-6.81612 v -19.13992 c 0,-3.77612 3.04,-6.81612 6.81612,-6.81612 z"
           style="opacity:1;fill:#000d00;fill-opacity:1;stroke:none;stroke-width:18.34225082;stroke-linecap:square;stroke-linejoin:round;stroke-miterlimit:4;stroke-dasharray:none;stroke-dashoffset:0;stroke-opacity:1;paint-order:normal" />
        <path
           style="opacity:1;fill:#000d00;fill-opacity:1;stroke:none;stroke-width:18.34225082;stroke-linecap:square;stroke-linejoin:round;stroke-miterlimit:4;stroke-dasharray:none;stroke-dashoffset:0;stroke-opacity:1;paint-order:normal"
           d="m -264.01968,177.51372 c -5.91078,0 -10.66912,4.75885 -10.66912,10.66963 v 19.26446 c 0,5.91078 4.75834,10.66963 10.66912,10.66963 h 21.81882 c 5.91078,0 10.66912,-4.75885 10.66912,-10.66963 v -19.26446 c 0,-5.91078 -4.75834,-10.66963 -10.66912,-10.66963 z m 0.14107,3.9088 h 21.54856 c 3.77613,0 6.81612,3.04 6.81612,6.81612 v 19.13992 c 0,3.77613 -3.03999,6.81612 -6.81612,6.81612 h -21.54856 c -3.77612,0 -6.81612,-3.03999 -6.81612,-6.81612 v -19.13992 c 0,-3.77612 3.04,-6.81612 6.81612,-6.81612 z"
           id="path831"
           inkscape:connector-curvature="0" />
      </g>
    </g>
  </g>
</svg>
