<?xml version="1.0" encoding="UTF-8" standalone="no"?>
<!-- Created with Inkscape (http://www.inkscape.org/) -->

<svg
   xmlns:dc="http://purl.org/dc/elements/1.1/"
   xmlns:cc="http://creativecommons.org/ns#"
   xmlns:rdf="http://www.w3.org/1999/02/22-rdf-syntax-ns#"
   xmlns:svg="http://www.w3.org/2000/svg"
   xmlns="http://www.w3.org/2000/svg"
   xmlns:sodipodi="http://sodipodi.sourceforge.net/DTD/sodipodi-0.dtd"
   xmlns:inkscape="http://www.inkscape.org/namespaces/inkscape"
   width="25"
   height="25"
   viewBox="0 0 6.6145835 6.6145835"
   version="1.1"
   id="svg8"
   inkscape:version="0.92.2 (5c3e80d, 2017-08-06)"
   sodipodi:docname="help.svg">
  <defs
     id="defs2" />
  <sodipodi:namedview
     id="base"
     pagecolor="#ffffff"
     bordercolor="#666666"
     borderopacity="1.0"
     inkscape:pageopacity="0.0"
     inkscape:pageshadow="2"
     inkscape:zoom="22.4"
     inkscape:cx="12.455308"
     inkscape:cy="12.241864"
     inkscape:document-units="mm"
     inkscape:current-layer="g908"
     showgrid="false"
     inkscape:window-width="1920"
     inkscape:window-height="1003"
     inkscape:window-x="-9"
     inkscape:window-y="-9"
     inkscape:window-maximized="1"
     units="px" />
  <metadata
     id="metadata5">
    <rdf:RDF>
      <cc:Work
         rdf:about="">
        <dc:format>image/svg+xml</dc:format>
        <dc:type
           rdf:resource="http://purl.org/dc/dcmitype/StillImage" />
        <dc:title></dc:title>
      </cc:Work>
    </rdf:RDF>
  </metadata>
  <g
     inkscape:label="Layer 1"
     inkscape:groupmode="layer"
     id="layer1"
     transform="translate(0,-290.38542)">
    <g
       id="g889">
      <g
         id="g908"
         transform="matrix(0.29154542,0,0,0.29154542,-8.537046,243.86581)"
         style="stroke-width:3.42999721">
        <path
           style="opacity:0.99100001;fill:#000000;fill-opacity:1;stroke:none;stroke-width:9.0894928;stroke-linecap:square;stroke-linejoin:round;stroke-miterlimit:4;stroke-dasharray:none;stroke-dashoffset:0;stroke-opacity:1;paint-order:normal"
           d="m 40.626186,159.56506 a 11.341176,11.341176 0 0 0 -11.341358,11.34109 11.341176,11.341176 0 0 0 11.341358,11.34107 11.341176,11.341176 0 0 0 11.341078,-11.34107 11.341176,11.341176 0 0 0 -11.341078,-11.34109 z m 0.03592,1.26 a 10.045042,10.045042 0 0 1 10.045167,10.04515 10.045042,10.045042 0 0 1 -10.045163,10.0449 10.045042,10.045042 0 0 1 -10.045163,-10.0449 10.045042,10.045042 0 0 1 10.045162,-10.04515 z"
           id="path818"
           inkscape:connector-curvature="0" />
        <g
           aria-label="?"
           style="font-style:normal;font-variant:normal;font-weight:normal;font-stretch:normal;font-size:125.32263184px;line-height:1.25;font-family:Shruti;-inkscape-font-specification:Shruti;letter-spacing:0px;word-spacing:0px;fill:#000000;fill-opacity:1;stroke:none;stroke-width:19.81461906"
           id="text828"
           transform="matrix(0.1570957,0,0,0.1570957,24.171531,154.12986)">
          <path
             d="m 95.104136,152.65411 v -12.17734 h 12.789274 v 12.17734 z m 1.162662,-32.37093 q 0,-11.38184 5.629722,-17.50111 5.26257,-3.977529 10.46395,-8.016246 5.62973,-4.467067 5.62973,-11.871382 0,-4.895416 -4.52826,-8.444592 -4.22229,-3.243212 -9.24009,-3.243212 -13.645973,0 -13.645973,15.665329 H 80.295505 q 0,-11.687804 6.241655,-18.724964 6.486425,-7.220738 17.68469,-7.220738 9.42367,0 16.95037,6.241655 8.01624,6.547618 8.01624,15.787714 0,9.362482 -5.8133,15.481751 -5.44615,4.467075 -10.8923,8.934135 -5.81331,5.32377 -5.81331,12.91166 v 7.89386 H 96.266798 Z"
             style="font-style:normal;font-variant:normal;font-weight:normal;font-stretch:normal;font-size:125.32263184px;font-family:Shruti;-inkscape-font-specification:Shruti;stroke-width:19.81461906"
             id="path817"
             inkscape:connector-curvature="0" />
        </g>
      </g>
    </g>
  </g>
</svg>
