<?xml version="1.0" encoding="UTF-8" standalone="no"?>
<!-- Created with Inkscape (http://www.inkscape.org/) -->

<svg
   xmlns:dc="http://purl.org/dc/elements/1.1/"
   xmlns:cc="http://creativecommons.org/ns#"
   xmlns:rdf="http://www.w3.org/1999/02/22-rdf-syntax-ns#"
   xmlns:svg="http://www.w3.org/2000/svg"
   xmlns="http://www.w3.org/2000/svg"
   xmlns:sodipodi="http://sodipodi.sourceforge.net/DTD/sodipodi-0.dtd"
   xmlns:inkscape="http://www.inkscape.org/namespaces/inkscape"
   width="144"
   height="144"
   viewBox="0 0 38.1 38.1"
   version="1.1"
   id="svg916"
   inkscape:version="0.92.2 (5c3e80d, 2017-08-06)"
   sodipodi:docname="img.svg">
  <defs
     id="defs910" />
  <sodipodi:namedview
     id="base"
     pagecolor="#ffffff"
     bordercolor="#666666"
     borderopacity="1.0"
     inkscape:pageopacity="0.0"
     inkscape:pageshadow="2"
     inkscape:zoom="3.959798"
     inkscape:cx="58.42359"
     inkscape:cy="59.040662"
     inkscape:document-units="mm"
     inkscape:current-layer="g872"
     showgrid="false"
     units="px"
     inkscape:window-width="1920"
     inkscape:window-height="1003"
     inkscape:window-x="-9"
     inkscape:window-y="-9"
     inkscape:window-maximized="1" />
  <metadata
     id="metadata913">
    <rdf:RDF>
      <cc:Work
         rdf:about="">
        <dc:format>image/svg+xml</dc:format>
        <dc:type
           rdf:resource="http://purl.org/dc/dcmitype/StillImage" />
        <dc:title />
      </cc:Work>
    </rdf:RDF>
  </metadata>
  <g
     inkscape:label="Layer 1"
     inkscape:groupmode="layer"
     id="layer1"
     transform="translate(0,-258.89999)">
    <g
       id="g1509"
       transform="translate(333.43524,173.73935)">
      <g
         id="g1557"
         transform="matrix(0.21262385,0,0,0.21262385,-250.13615,72.987521)"
         style="stroke-width:4.70314169">
        <g
           id="g872">
          <path
             style="opacity:1;fill:#000000;fill-opacity:0.14044943;stroke:none;stroke-width:41.5748024;stroke-linecap:square;stroke-linejoin:round;stroke-miterlimit:4;stroke-dasharray:none;stroke-dashoffset:0;stroke-opacity:1;paint-order:normal"
             d="M 24.929688 3.0898438 C 12.00622 3.0898438 1.6015625 13.492558 1.6015625 26.416016 L 1.6015625 105.97852 L 1.5625 106.01758 L 1.6015625 106.05664 L 1.6015625 117.58398 C 1.6015625 130.50744 12.00622 140.91016 24.929688 140.91016 L 119.07031 140.91016 C 131.99377 140.91016 142.39844 130.50744 142.39844 117.58398 L 142.39844 26.416016 C 142.39844 13.492558 131.99377 3.0898437 119.07031 3.0898438 L 24.929688 3.0898438 z M 24.998047 11.945312 L 118.67773 11.945312 C 126.86652 11.945312 133.45898 18.537787 133.45898 26.726562 L 133.45898 78.072266 L 103.0625 47.675781 L 96.761719 41.375 L 90.460938 47.675781 L 62.296875 75.837891 L 53.320312 66.861328 L 47.019531 60.560547 L 40.71875 66.861328 L 10.216797 97.363281 L 10.216797 26.726562 C 10.216797 18.537787 16.809263 11.945312 24.998047 11.945312 z M 39.714844 22.515625 A 16.036171 16.036171 0 0 0 23.677734 38.552734 A 16.036171 16.036171 0 0 0 39.714844 54.587891 A 16.036171 16.036171 0 0 0 55.75 38.552734 A 16.036171 16.036171 0 0 0 39.714844 22.515625 z M 39.714844 29.585938 A 8.9651044 8.9651044 0 0 1 48.679688 38.552734 A 8.9651044 8.9651044 0 0 1 39.714844 47.517578 A 8.9651044 8.9651044 0 0 1 30.748047 38.552734 A 8.9651044 8.9651044 0 0 1 39.714844 29.585938 z M 96.761719 53.976562 L 133.45898 90.673828 L 133.45898 117.80273 C 133.45898 125.99151 126.86652 132.58398 118.67773 132.58398 L 24.998047 132.58398 C 16.809263 132.58398 10.216797 125.99151 10.216797 117.80273 L 10.216797 109.96484 L 47.019531 73.162109 L 75.189453 101.33398 L 75.212891 101.31055 A 4.468662 4.468662 0 0 0 78.064453 102.33984 A 4.468662 4.468662 0 0 0 82.533203 97.871094 A 4.468662 4.468662 0 0 0 80.810547 94.351562 L 68.597656 82.140625 L 96.761719 53.976562 z "
             transform="matrix(1.2443728,0,0,1.2443728,-391.76739,57.251898)"
             id="rect1511" />
        </g>
      </g>
    </g>
  </g>
</svg>
