<?xml version="1.0" encoding="UTF-8" standalone="no"?>
<!-- Created with Inkscape (http://www.inkscape.org/) -->

<svg
   xmlns:dc="http://purl.org/dc/elements/1.1/"
   xmlns:cc="http://creativecommons.org/ns#"
   xmlns:rdf="http://www.w3.org/1999/02/22-rdf-syntax-ns#"
   xmlns:svg="http://www.w3.org/2000/svg"
   xmlns="http://www.w3.org/2000/svg"
   xmlns:sodipodi="http://sodipodi.sourceforge.net/DTD/sodipodi-0.dtd"
   xmlns:inkscape="http://www.inkscape.org/namespaces/inkscape"
   width="144"
   height="144"
   viewBox="0 0 38.1 38.1"
   version="1.1"
   id="svg916"
   inkscape:version="0.92.2 (5c3e80d, 2017-08-06)"
   sodipodi:docname="logogrey.svg">
  <defs
     id="defs910" />
  <sodipodi:namedview
     id="base"
     pagecolor="#ffffff"
     bordercolor="#666666"
     borderopacity="1.0"
     inkscape:pageopacity="0.0"
     inkscape:pageshadow="2"
     inkscape:zoom="2.8"
     inkscape:cx="131.33782"
     inkscape:cy="87.326439"
     inkscape:document-units="mm"
     inkscape:current-layer="g1557"
     showgrid="false"
     units="px"
     inkscape:window-width="1920"
     inkscape:window-height="1003"
     inkscape:window-x="-9"
     inkscape:window-y="-9"
     inkscape:window-maximized="1" />
  <metadata
     id="metadata913">
    <rdf:RDF>
      <cc:Work
         rdf:about="">
        <dc:format>image/svg+xml</dc:format>
        <dc:type
           rdf:resource="http://purl.org/dc/dcmitype/StillImage" />
        <dc:title />
      </cc:Work>
    </rdf:RDF>
  </metadata>
  <g
     inkscape:label="Layer 1"
     inkscape:groupmode="layer"
     id="layer1"
     transform="translate(0,-258.89999)">
    <g
       id="g1509"
       transform="translate(333.43524,173.73935)">
      <g
         id="g1557"
         transform="matrix(0.21262385,0,0,0.21262385,-250.13615,72.987521)"
         style="stroke-width:4.70314169;fill:#000000;fill-opacity:0.0505618">
        <path
           inkscape:connector-curvature="0"
           id="rect1540"
           d="m -264.01967,129.32177 c -5.91078,0 -10.66912,4.75885 -10.66912,10.66963 v 19.26446 c 0,5.91078 4.75834,10.66963 10.66912,10.66963 h 21.81882 c 5.91078,0 10.66912,-4.75885 10.66912,-10.66963 V 139.9914 c 0,-5.91078 -4.75834,-10.66963 -10.66912,-10.66963 z m 0.14107,3.9088 h 21.54856 c 3.77613,0 6.81612,3.04 6.81612,6.81612 v 19.13992 c 0,3.77613 -3.03999,6.81612 -6.81612,6.81612 h -21.54856 c -3.77612,0 -6.81612,-3.03999 -6.81612,-6.81612 v -19.13992 c 0,-3.77612 3.04,-6.81612 6.81612,-6.81612 z"
           style="opacity:1;fill:#000000;fill-opacity:0.0505618;stroke:none;stroke-width:18.34225082;stroke-linecap:square;stroke-linejoin:round;stroke-miterlimit:4;stroke-dasharray:none;stroke-dashoffset:0;stroke-opacity:1;paint-order:normal" />
        <rect
           style="opacity:1;fill:#000000;fill-opacity:0.0505618;stroke:none;stroke-width:51.73455811;stroke-linecap:square;stroke-linejoin:round;stroke-miterlimit:4;stroke-dasharray:none;stroke-dashoffset:0;stroke-opacity:1;paint-order:normal"
           id="rect1475"
           width="42.727394"
           height="40.603355"
           x="-373.82788"
           y="177.32492"
           ry="9.724328" />
        <rect
           ry="9.724328"
           y="177.5139"
           x="-274.47397"
           height="40.603355"
           width="42.727394"
           id="rect1477"
           style="opacity:1;fill:#000000;fill-opacity:0.0505618;stroke:none;stroke-width:51.73455811;stroke-linecap:square;stroke-linejoin:round;stroke-miterlimit:4;stroke-dasharray:none;stroke-dashoffset:0;stroke-opacity:1;paint-order:normal" />
        <rect
           style="opacity:1;fill:#000000;fill-opacity:0.0505618;stroke:none;stroke-width:51.73455811;stroke-linecap:square;stroke-linejoin:round;stroke-miterlimit:4;stroke-dasharray:none;stroke-dashoffset:0;stroke-opacity:1;paint-order:normal"
           id="rect1479"
           width="42.727394"
           height="40.603355"
           x="-324.47168"
           y="129.32195"
           ry="9.724328" />
        <rect
           ry="9.724328"
           y="129.32195"
           x="-373.82788"
           height="40.603355"
           width="42.727394"
           id="rect1481"
           style="opacity:1;fill:#000000;fill-opacity:0.0505618;stroke:none;stroke-width:51.73455811;stroke-linecap:square;stroke-linejoin:round;stroke-miterlimit:4;stroke-dasharray:none;stroke-dashoffset:0;stroke-opacity:1;paint-order:normal" />
        <path
           style="opacity:1;fill:#000000;fill-opacity:0.05056182;stroke:none;stroke-width:245.66929626;stroke-linecap:square;stroke-linejoin:round;stroke-miterlimit:4;stroke-dasharray:none;stroke-dashoffset:0;stroke-opacity:1;paint-order:normal"
           d="M 24.929688 3.0898438 C 12.006221 3.0898438 1.6015625 13.492558 1.6015625 26.416016 L 1.6015625 117.58398 C 1.6015625 130.50744 12.006221 140.91016 24.929688 140.91016 L 119.07031 140.91016 C 131.99377 140.91016 142.39844 130.50744 142.39844 117.58398 L 142.39844 26.416016 C 142.39844 13.492558 131.99377 3.0898437 119.07031 3.0898438 L 24.929688 3.0898438 z M 24.998047 11.945312 L 118.67773 11.945312 C 126.86652 11.945312 133.45898 18.537787 133.45898 26.726562 L 133.45898 45.832031 L 10.216797 45.832031 L 10.216797 26.726562 C 10.216797 18.537787 16.809263 11.945312 24.998047 11.945312 z M 10.216797 51.144531 L 133.45898 51.144531 L 133.45898 117.80273 C 133.45898 125.99151 126.86652 132.58398 118.67773 132.58398 L 24.998047 132.58398 C 16.809263 132.58398 10.216797 125.99151 10.216797 117.80273 L 10.216797 51.144531 z "
           transform="matrix(1.2443728,0,0,1.2443728,-391.76739,57.251898)"
           id="rect1495" />
        <path
           style="opacity:1;fill:#000000;fill-opacity:0.0505618;stroke:none;stroke-width:18.34225082;stroke-linecap:square;stroke-linejoin:round;stroke-miterlimit:4;stroke-dasharray:none;stroke-dashoffset:0;stroke-opacity:1;paint-order:normal"
           d="m -314.01741,177.51372 c -5.91078,0 -10.66912,4.75885 -10.66912,10.66963 v 19.26446 c 0,5.91078 4.75834,10.66963 10.66912,10.66963 h 21.81882 c 5.91078,0 10.66912,-4.75885 10.66912,-10.66963 v -19.26446 c 0,-5.91078 -4.75834,-10.66963 -10.66912,-10.66963 z m 0.14107,3.9088 h 21.54856 c 3.77613,0 6.81612,3.04 6.81612,6.81612 v 19.13992 c 0,3.77613 -3.03999,6.81612 -6.81612,6.81612 h -21.54856 c -3.77612,0 -6.81612,-3.03999 -6.81612,-6.81612 v -19.13992 c 0,-3.77612 3.04,-6.81612 6.81612,-6.81612 z"
           id="path1547"
           inkscape:connector-curvature="0" />
      </g>
    </g>
  </g>
</svg>
